<svg width="116" height="50" viewBox="0 0 116 50" fill="none" xmlns="http://www.w3.org/2000/svg">
<path d="M77.3478 12.583H83.2693L96.5315 34.4683H90.2451L80.3491 17.7707L75.0767 26.6058H83.5937L86.1489 30.7397H72.8054L70.4126 34.4278H64.1261L77.3478 12.583ZM181.662 34.5089H187.948L190.341 30.8208H203.684L201.129 26.6869H192.612L197.885 17.8518L207.781 34.5494H214.067L200.805 12.6641H194.883L181.662 34.5089ZM96.1666 23.5662V26.4843C96.2882 32.2393 99.5328 34.671 104.562 34.5494H121.109V30.0508H104.602C101.844 30.1318 101.642 28.227 101.561 26.3221V23.5663V20.6887C101.642 18.9865 101.844 17.0412 104.602 17.0818H121.109V12.5831H104.562C99.5328 12.4616 96.3288 14.9338 96.1666 20.6483V23.5662ZM158.99 17.2843H172.293C174.158 17.2843 175.091 18.0949 175.091 19.6755C175.091 21.2966 174.158 22.0667 172.293 22.0667H160.369L161.423 26.768H171.603C173.591 26.7275 174.726 28.1055 174.888 30.0103L175.051 34.509H180.323C180.323 34.509 180.283 30.294 180.161 29.4429C180.039 28.5918 179.674 26.2411 177.606 25.1064C182.473 21.9046 180.688 12.6237 173.712 12.6237H153.636V34.5089H158.99L158.99 17.2843ZM137.211 34.5089H141.875C147.634 34.3873 150.067 31.145 149.946 26.1195V12.583H144.673V27.2137C144.754 29.9697 142.808 30.1722 140.942 30.2533H137.211H133.277C131.573 30.1723 129.626 29.9697 129.667 27.2137V12.583H124.273V26.16C124.151 31.1856 126.625 34.3873 132.344 34.5089H137.211ZM49.7827 22.332C49.3366 14.1452 46.5381 8.14702 42.7257 4.86427C38.5888 1.3383 30.8828 -0.0396838 24.9208 0.000867297C18.9589 -0.0396838 11.253 1.3383 7.11607 4.86427C3.30369 8.14712 0.505157 14.1453 0.059056 22.332C-0.346559 30.0323 1.3163 38.4217 5.69652 43.1635C9.91442 47.8242 18.3504 49.2832 24.8802 49.2832C31.4099 49.3238 39.8458 47.8242 44.0638 43.1635C48.4441 38.3811 50.1474 29.9917 49.7827 22.332ZM23.5012 2.06775C24.3123 2.0272 24.515 2.0272 24.8802 2.0272C25.2452 2.0272 25.4074 2.0272 26.2591 2.06775L26.2997 19.9813C26.0563 19.9813 23.7041 19.9813 23.4607 19.9813C23.4607 19.9813 23.4607 2.06775 23.5012 2.06775ZM3.34427 29.87C3.10089 26.7899 2.1681 15.5635 6.62939 9.16005C8.53563 6.36362 11.3341 4.49931 14.1731 3.52665C18.1071 2.14876 22.8118 2.06765 22.8118 2.06765C20.9867 6.56638 17.2149 16.2121 16.4848 18.36C15.5926 20.9943 14.822 22.4938 14.0514 27.2357C13.5647 31.1264 12.713 40.8127 12.4697 45.0276C7.19714 42.515 4.03367 37.7327 3.34427 29.87ZM24.8397 47.2163C21.1489 47.1758 16.6065 46.811 12.9969 45.2709C14.2137 42.0286 20.0133 28.087 23.2174 22.6561C23.4607 22.6561 26.2591 22.6561 26.5025 22.6561C29.666 28.087 35.5063 42.0286 36.7231 45.2709C33.0728 46.8515 28.5709 47.1758 24.8397 47.2163ZM46.3757 29.8298C45.6863 37.7328 42.5227 42.4746 37.2503 45.0279C37.007 40.8129 36.1553 31.1267 35.6686 27.236C34.8979 22.4536 34.1274 20.9946 33.2351 18.3603C32.5051 16.2122 28.7332 6.56647 26.9081 2.06784C26.9081 2.06784 31.6128 2.14885 35.5468 3.52684C38.3859 4.4995 41.1843 6.40427 43.0905 9.16024C47.5518 15.5637 46.6189 26.79 46.3757 29.8298Z" fill="#5F5F5F"/>
</svg>
