<svg width="144" height="50" viewBox="0 0 144 50" fill="none" xmlns="http://www.w3.org/2000/svg">
<path d="M118.335 49.7032C112.642 49.7032 107.201 47.833 102.805 44.3444C98.409 47.7971 92.9681 49.7032 87.2749 49.7032C81.5817 49.7032 76.1408 47.833 71.7448 44.3444C67.3488 47.7971 61.9078 49.7032 56.2146 49.7032C50.5214 49.7032 45.0805 47.833 40.6845 44.3444C36.2885 47.7971 30.8475 49.7032 25.1543 49.7032C18.5243 49.7032 12.2906 47.1857 7.57032 42.5822C2.77796 37.9787 0.111528 31.8287 0.00342974 25.2832C-0.104669 18.7016 2.34556 12.4797 6.92173 7.69644C11.4619 2.9491 17.6235 0.215788 24.2535 0H24.3616H25.9471C31.352 0.179823 36.4686 2.04999 40.6484 5.32277C44.7922 2.04999 49.9089 0.179823 55.3138 0L55.4219 2.80524V0H57.0073C62.4123 0.179823 67.5289 2.04999 71.7087 5.32277C75.8885 2.04999 80.9692 0.179823 86.4101 0H86.5182H88.1037C93.5086 0.179823 98.6252 2.04999 102.805 5.32277C106.949 2.04999 112.065 0.179823 117.506 0L117.615 2.80524V0H119.2C125.794 0.215788 131.956 2.9491 136.532 7.69644C141.108 12.4438 143.558 18.7016 143.45 25.2472C143.342 31.8287 140.676 37.9787 135.955 42.5822C131.163 47.1857 124.929 49.7032 118.335 49.7032ZM106.913 40.2804C110.12 42.6181 114.083 44.0208 118.335 44.0208C128.821 44.0208 137.505 35.5691 137.649 25.2112C137.829 14.8534 129.469 6.14996 119.02 5.75435H117.651C113.651 5.89821 109.976 7.26486 106.949 9.45871C110.552 13.9543 112.426 19.4929 112.354 25.2832C112.21 30.7858 110.336 36.0006 106.913 40.2804ZM75.8525 40.2804C79.0594 42.6181 83.023 44.0208 87.2749 44.0208C91.5268 44.0208 95.4544 42.6181 98.6613 40.2804C95.2742 36.0366 93.3645 30.7858 93.2564 25.2832C93.1483 19.4929 95.058 13.9543 98.6613 9.45871C95.6345 7.26486 91.9592 5.89821 87.9595 5.75435H86.5903C82.5906 5.89821 78.9153 7.26486 75.8885 9.45871C79.4918 13.9543 81.3655 19.4929 81.2935 25.2832C81.1493 30.7858 79.2396 36.0006 75.8525 40.2804ZM44.7562 40.2804C47.9631 42.6181 51.9267 44.0208 56.1786 44.0208C60.4305 44.0208 64.358 42.6181 67.565 40.2804C64.1779 36.0366 62.2681 30.7858 62.16 25.2832C62.0519 19.4929 63.9617 13.9543 67.565 9.45871C64.5382 7.26486 60.8629 5.89821 56.8632 5.75435H55.494C51.4943 5.89821 47.819 7.26486 44.7922 9.45871C48.3955 13.9543 50.2692 19.4929 50.1971 25.2832C50.053 30.7858 48.1433 36.0006 44.7562 40.2804ZM24.3976 5.71838C13.9481 6.07803 5.58852 14.8174 5.76868 25.1753C5.94884 35.5331 14.5967 43.9848 25.0823 43.9848C29.3341 43.9848 33.2617 42.5822 36.4686 40.2445C33.0816 36.0006 31.1718 30.7498 31.0637 25.2472C30.9556 19.4569 32.8654 13.9183 36.4686 9.42275C33.4419 7.2289 29.7665 5.86224 25.7669 5.71838H24.3976ZM71.7087 13.5227C69.2585 16.7955 67.8532 20.8235 67.9253 25.1753C67.9974 29.2752 69.4026 33.0875 71.7087 36.1805C74.0148 33.0875 75.4201 29.2752 75.4922 25.1753C75.5642 20.8235 74.1229 16.7955 71.7087 13.5227ZM40.6124 13.5227C38.1622 16.7955 36.7569 20.8235 36.829 25.1753C36.901 29.2752 38.3063 33.0875 40.6124 36.1805C42.9185 33.0875 44.3238 29.2752 44.3959 25.1753C44.4679 20.8235 43.0626 16.7955 40.6124 13.5227ZM102.769 13.5227C100.319 16.7955 98.9135 20.8235 98.9856 25.1753C99.0576 29.2752 100.463 33.0875 102.769 36.1805C105.075 33.0875 106.48 29.2752 106.552 25.1753C106.661 20.8235 105.219 16.7955 102.769 13.5227Z" fill="#5F5F5F"/>
</svg>
