<svg width="17" height="15" viewBox="0 0 17 15" fill="none" xmlns="http://www.w3.org/2000/svg">
<path d="M8.10185 0C8.25617 0 8.41049 0 8.56481 0C8.60756 0.00846212 8.65015 0.0170781 8.6929 0.0250786C9.70802 0.215399 10.4023 1.17454 10.2446 2.19384C10.1346 2.90528 9.72793 3.40162 9.06836 3.69102C9.00663 3.7181 8.98487 3.75072 8.98503 3.81672C8.98688 4.63709 8.98626 5.45745 8.98642 6.27766C8.98642 6.37767 8.98889 6.37997 9.09182 6.37997C10.3415 6.37997 11.591 6.37967 12.8407 6.38044C12.9184 6.38044 12.9946 6.37167 13.0701 6.35659C13.679 6.23473 14.092 5.695 14.0884 5.13204C14.0856 4.7014 14.086 4.27075 14.0904 3.84011C14.0914 3.75487 14.063 3.71348 13.9846 3.68087C13.2708 3.38377 12.7511 2.63926 12.8174 1.78628C12.8651 1.17254 13.1457 0.690663 13.6446 0.333561C13.9068 0.145856 14.2042 0.0455416 14.5216 0C14.6708 0 14.8199 0 14.9691 0C14.979 0.00276942 14.9886 0.00692355 14.9986 0.00830826C15.5299 0.0840058 15.9589 0.334792 16.2861 0.758052C16.4995 1.03407 16.6167 1.34994 16.6667 1.69242C16.6667 1.84628 16.6667 2.00014 16.6667 2.15399C16.664 2.16384 16.6605 2.17353 16.6588 2.18369C16.5364 2.90681 16.1336 3.40993 15.46 3.69871C15.4049 3.72225 15.3906 3.7558 15.3909 3.81072C15.3926 4.13628 15.3938 4.462 15.3909 4.78756C15.389 4.98973 15.4009 5.19205 15.3781 5.39437C15.3137 5.96441 15.085 6.45967 14.6903 6.8737C14.1789 7.41005 13.5446 7.67822 12.8035 7.68099C11.5744 7.68545 10.3452 7.68222 9.11605 7.68222C8.98657 7.68222 8.98657 7.68237 8.98657 7.81453C8.98657 8.61444 8.98812 9.41434 8.98457 10.2142C8.9841 10.3047 9.01173 10.3475 9.0966 10.3836C9.87886 10.7157 10.3512 11.52 10.2539 12.3422C10.1713 13.0397 9.80972 13.5465 9.18873 13.8717C8.98858 13.9765 8.77191 14.0294 8.54969 14.0625C8.40571 14.0625 8.26157 14.0625 8.11759 14.0625C8.07469 14.0547 8.03194 14.0467 7.98904 14.0391C6.97191 13.8603 6.26065 12.8872 6.42022 11.875C6.53179 11.1671 6.92978 10.6683 7.5858 10.3775C7.65926 10.3449 7.68256 10.3069 7.68225 10.2287C7.67947 9.42095 7.68055 8.6132 7.68055 7.80546C7.68055 7.68237 7.6804 7.68222 7.55725 7.68222C5.93951 7.68222 4.32176 7.68222 2.70386 7.68222C2.57824 7.68222 2.57793 7.68237 2.57793 7.80453C2.57778 8.60967 2.57901 9.41495 2.57608 10.2201C2.57577 10.3038 2.60062 10.3466 2.67994 10.3809C3.47376 10.7238 3.9375 11.4976 3.84352 12.3513C3.77376 12.9847 3.45123 13.4692 2.90571 13.8033C2.67207 13.9463 2.4142 14.0213 2.14522 14.0625C1.99599 14.0625 1.84691 14.0625 1.69768 14.0625C1.68534 14.0594 1.67315 14.0551 1.66065 14.0533C1.13287 13.9753 0.705864 13.7257 0.38071 13.3044C0.167438 13.0284 0.0492284 12.713 0 12.3701C0 12.2162 0 12.0624 0 11.9085C0.00308642 11.896 0.00694444 11.8839 0.00910494 11.8713C0.131944 11.1548 0.531944 10.655 1.19846 10.367C1.2642 10.3387 1.27608 10.2998 1.27593 10.2373C1.27485 8.09994 1.27469 5.96241 1.2767 3.82503C1.2767 3.75118 1.25154 3.71748 1.18426 3.68964C0.779475 3.52163 0.465741 3.24761 0.243981 2.86973C0.113735 2.64772 0.0408951 2.40632 0 2.15399C0 2.00014 0 1.84628 0 1.69242C0.00339506 1.67488 0.00725309 1.6575 0.0101852 1.63996C0.104475 1.05946 0.398148 0.608042 0.892901 0.287712C1.13827 0.128778 1.41049 0.0436953 1.69753 0C1.84676 0 1.99583 0 2.14506 0C2.19043 0.00830826 2.23565 0.0166165 2.28102 0.0250786C3.25972 0.207245 3.96697 1.11331 3.84089 2.13892C3.75123 2.8685 3.3463 3.38315 2.67346 3.68364C2.60031 3.71625 2.57546 3.75503 2.57577 3.83288C2.57824 4.64293 2.57716 5.45299 2.57731 6.26304C2.57731 6.37828 2.57947 6.38013 2.69305 6.38013C4.31805 6.38013 5.94305 6.38013 7.56805 6.38013C7.67978 6.38013 7.68025 6.37982 7.68025 6.26904C7.6804 5.45899 7.67901 4.64893 7.68225 3.83888C7.68256 3.75333 7.65417 3.71379 7.57608 3.68117C6.79321 3.35438 6.32021 2.55725 6.41342 1.71904C6.48611 1.06469 6.81775 0.574809 7.38302 0.24017C7.60478 0.108931 7.84907 0.040772 8.10185 0Z" fill="#959595"/>
</svg>
