<svg width="48" height="48" viewBox="0 0 48 48" fill="none" xmlns="http://www.w3.org/2000/svg">
<path d="M43.5 16C43.5 16.82 42.82 17.5 42 17.5H6C5.18 17.5 4.5 16.82 4.5 16C4.5 15.18 5.18 14.5 6 14.5H8.04L8.8 10.88C9.52 7.38003 11.02 4.16003 16.98 4.16003H31.02C36.98 4.16003 38.48 7.38003 39.2 10.88L39.96 14.5H42C42.82 14.5 43.5 15.18 43.5 16Z" fill="#1572D3"/>
<path d="M44.3602 27.32C44.0602 24.02 43.1802 20.5 36.7602 20.5H11.2402C4.82017 20.5 3.96017 24.02 3.64017 27.32L2.52017 39.5C2.38017 41.02 2.88017 42.54 3.92017 43.68C4.98017 44.84 6.48017 45.5 8.08017 45.5H11.8402C15.0802 45.5 15.7002 43.64 16.1002 42.42L16.5002 41.22C16.9602 39.84 17.0802 39.5 18.8802 39.5H29.1202C30.9202 39.5 30.9802 39.7 31.5002 41.22L31.9002 42.42C32.3002 43.64 32.9202 45.5 36.1602 45.5H39.9202C41.5002 45.5 43.0202 44.84 44.0802 43.68C45.1202 42.54 45.6202 41.02 45.4802 39.5L44.3602 27.32ZM18.0002 31.5H12.0002C11.1802 31.5 10.5002 30.82 10.5002 30C10.5002 29.18 11.1802 28.5 12.0002 28.5H18.0002C18.8202 28.5 19.5002 29.18 19.5002 30C19.5002 30.82 18.8202 31.5 18.0002 31.5ZM36.0002 31.5H30.0002C29.1802 31.5 28.5002 30.82 28.5002 30C28.5002 29.18 29.1802 28.5 30.0002 28.5H36.0002C36.8202 28.5 37.5002 29.18 37.5002 30C37.5002 30.82 36.8202 31.5 36.0002 31.5Z" fill="#1572D3"/>
</svg>
