<svg width="15" height="17" viewBox="0 0 15 17" fill="none" xmlns="http://www.w3.org/2000/svg">
<path d="M6.69686 2.56763C6.69686 2.52674 6.69686 2.50033 6.69686 2.47392C6.69686 1.84385 6.69566 1.21378 6.69753 0.583704C6.69847 0.267729 6.94497 0.0122146 7.25367 0.000417508C7.57923 -0.0119158 7.85315 0.25057 7.85382 0.579414C7.85516 1.20278 7.85422 1.82615 7.85422 2.44952C7.85422 2.53961 7.85516 2.54068 7.92966 2.49631C8.34523 2.24844 8.76026 1.99962 9.17596 1.75202C9.53388 1.53887 9.97339 1.73325 10.054 2.13971C10.1018 2.37995 9.9877 2.62045 9.75979 2.75705C9.33325 3.01257 8.90618 3.26741 8.47951 3.52279C8.29012 3.6362 8.10153 3.75096 7.9112 3.86276C7.86974 3.88716 7.85329 3.91544 7.85329 3.96424C7.85449 5.05909 7.85409 6.15381 7.85435 7.24866C7.85435 7.32119 7.86051 7.32427 7.92431 7.2874C8.84078 6.7564 9.75578 6.22298 10.6753 5.69761C10.7835 5.63581 10.8229 5.57294 10.8214 5.4496C10.8174 5.10575 10.8278 4.76175 10.8341 4.41789C10.8404 4.07631 10.8485 3.73474 10.8559 3.39316C10.8626 3.08107 11.1115 2.83038 11.4186 2.82649C11.7373 2.82247 12.0076 3.06351 12.0099 3.37734C12.013 3.78809 11.9975 4.19898 11.9902 4.60986C11.9888 4.697 11.9898 4.78414 11.9868 4.87114C11.9849 4.9249 12.0025 4.92691 12.044 4.90265C12.3116 4.74634 12.5801 4.59136 12.8484 4.43613C13.1321 4.27204 13.4154 4.10701 13.7 3.94454C13.9267 3.81517 14.2353 3.87429 14.4128 4.07819C14.5895 4.28115 14.5969 4.58949 14.4331 4.80961C14.3726 4.89098 14.292 4.94461 14.2067 4.99394C13.6719 5.30294 13.137 5.61181 12.6023 5.92095C12.5931 5.92631 12.5848 5.93315 12.5673 5.94562C12.6563 5.99589 12.7389 6.04254 12.8215 6.08893C13.1928 6.29765 13.5642 6.50598 13.9353 6.71498C14.2179 6.87424 14.3154 7.21676 14.1621 7.51007C14.0261 7.77042 13.6762 7.88611 13.4035 7.74347C13.0756 7.57201 12.7564 7.38419 12.4338 7.20295C12.1033 7.01741 11.7728 6.83174 11.4429 6.645C11.4068 6.62449 11.3779 6.62824 11.3437 6.64808C10.4604 7.16072 9.57682 7.67269 8.69325 8.18479C8.6257 8.22393 8.5591 8.26469 8.49021 8.30128C8.44367 8.32595 8.44714 8.3407 8.49061 8.36563C8.71117 8.49205 8.93053 8.62061 9.15041 8.7481C9.54017 8.97372 9.93019 9.1992 10.3201 9.42456C10.6559 9.61881 10.9922 9.81225 11.3272 10.0078C11.3687 10.0321 11.4001 10.0337 11.4431 10.0095C12.0809 9.64723 12.7196 9.28621 13.3588 8.9264C13.6268 8.77558 13.9791 8.87907 14.1367 9.15175C14.2944 9.42469 14.1996 9.7786 13.9177 9.94296C13.6288 10.1115 13.3358 10.2726 13.0446 10.4371C12.899 10.5193 12.7538 10.6023 12.6075 10.6832C12.5654 10.7066 12.5591 10.7216 12.6058 10.7485C13.0446 11.0008 13.4828 11.254 13.9208 11.5078C14.052 11.5838 14.1849 11.6576 14.3115 11.7405C14.5016 11.8652 14.5901 12.1184 14.5334 12.3498C14.4771 12.5793 14.2836 12.7519 14.0581 12.7824C13.9116 12.8023 13.7798 12.769 13.6547 12.6965C13.1452 12.4014 12.6359 12.1064 12.126 11.8121C12.0982 11.796 12.0676 11.7597 12.0384 11.7761C12.008 11.7931 12.0257 11.8377 12.0261 11.8699C12.0309 12.2451 12.0357 12.6204 12.0437 12.9956C12.0464 13.1205 12.0633 13.2457 12.044 13.37C11.9975 13.6696 11.7345 13.8927 11.4538 13.8747C11.1318 13.8541 10.8955 13.6113 10.8889 13.2896C10.8809 12.8942 10.8772 12.4989 10.8697 12.1037C10.8635 11.7777 10.8535 11.4518 10.8479 11.1258C10.8471 11.0768 10.8218 11.0546 10.7851 11.0334C10.2927 10.7492 9.80058 10.4643 9.30824 10.1798C8.8468 9.91333 8.38522 9.64696 7.92351 9.38072C7.8577 9.34278 7.85476 9.34412 7.85476 9.41866C7.85449 10.5112 7.85489 11.6038 7.85355 12.6964C7.85355 12.7452 7.87067 12.774 7.9116 12.7984C8.45183 13.1203 8.99138 13.4433 9.53094 13.7663C9.61708 13.8178 9.70308 13.8695 9.78815 13.9226C10.0607 14.093 10.1442 14.4441 9.97874 14.7212C9.81891 14.9889 9.46206 15.0772 9.18773 14.9144C8.76788 14.665 8.34937 14.4134 7.92992 14.1632C7.90973 14.1512 7.88886 14.1242 7.86546 14.1375C7.84205 14.1508 7.85476 14.1827 7.85476 14.206C7.85409 14.8338 7.85542 15.4617 7.85355 16.0895C7.85262 16.4171 7.57481 16.6806 7.25073 16.6661C6.94109 16.6523 6.69807 16.3976 6.69726 16.0803C6.69566 15.4793 6.697 14.8782 6.69619 14.2772C6.69619 14.2426 6.71412 14.1938 6.68469 14.1766C6.6558 14.1597 6.62156 14.1984 6.592 14.2161C6.19369 14.4537 5.79577 14.6921 5.39826 14.931C5.17797 15.0634 4.95701 15.0672 4.74381 14.9229C4.40154 14.6914 4.41344 14.1782 4.76749 13.9568C5.06803 13.7688 5.37486 13.5909 5.67901 13.4086C6.00229 13.2149 6.32503 13.0204 6.64951 12.8286C6.69847 12.7996 6.697 12.7595 6.697 12.7142C6.69673 11.6574 6.69673 10.6005 6.69673 9.54373C6.69673 9.50124 6.69713 9.45887 6.6966 9.41638C6.69579 9.34573 6.69138 9.34265 6.63132 9.3771C6.48045 9.46357 6.32985 9.5507 6.17938 9.63784C5.69693 9.91708 5.21449 10.1965 4.73218 10.4757C4.4196 10.6567 4.10729 10.8381 3.7939 11.0178C3.75779 11.0385 3.74669 11.0641 3.74495 11.1039C3.73251 11.383 3.73586 11.6623 3.73104 11.9414C3.72328 12.3946 3.71606 12.848 3.70523 13.3012C3.698 13.6033 3.45163 13.8544 3.15778 13.8659C2.84212 13.8782 2.57181 13.6581 2.55389 13.3453C2.53864 13.0786 2.55589 12.8099 2.55924 12.5421C2.56245 12.2852 2.56726 12.0284 2.56873 11.7715C2.56913 11.7128 2.53275 11.7513 2.51697 11.7602C2.35968 11.849 2.20332 11.9393 2.04696 12.0298C1.66497 12.251 1.28083 12.4689 0.901778 12.6953C0.560709 12.8991 0.188076 12.7413 0.0565971 12.4622C-0.0755502 12.1817 0.0323879 11.8526 0.301364 11.6979C0.829017 11.3944 1.35506 11.0881 1.88138 10.7823C1.95601 10.7389 1.95481 10.726 1.8783 10.683C1.45859 10.4467 1.03754 10.2128 0.619694 9.97326C0.269129 9.77244 0.220711 9.30659 0.517507 9.03311C0.697939 8.86674 0.976278 8.84154 1.20312 8.96929C1.82868 9.32173 2.45491 9.67283 3.07967 10.0265C3.12635 10.0529 3.15938 10.0456 3.20165 10.0211C4.12347 9.48609 5.04582 8.952 5.96818 8.41791C6.1141 8.33346 6.11517 8.33198 5.96898 8.24726C5.28003 7.84844 4.59053 7.45069 3.90131 7.0524C3.68316 6.92639 3.46474 6.80077 3.24779 6.67248C3.20539 6.64741 3.17369 6.64982 3.13183 6.67355C2.48995 7.03779 1.84767 7.40149 1.20433 7.76304C0.929331 7.91761 0.575021 7.81372 0.421473 7.53836C0.265384 7.25831 0.36289 6.90815 0.643368 6.74863C1.0794 6.50062 1.51637 6.25395 1.95267 6.00635C1.97139 5.99576 2.00162 5.99066 2.00202 5.96653C2.00256 5.93824 1.97006 5.93288 1.94986 5.92122C1.39599 5.60069 0.840519 5.2827 0.288256 4.95949C0.026904 4.80639 -0.0680601 4.49752 0.0503107 4.22043C0.182725 3.91035 0.576358 3.78367 0.868473 3.95352C1.40241 4.264 1.93782 4.57193 2.47283 4.88066C2.5369 4.91766 2.53877 4.91699 2.53743 4.84098C2.52887 4.35864 2.5171 3.8763 2.51189 3.39396C2.50961 3.17772 2.61086 3.01109 2.79464 2.90089C3.17597 2.67219 3.65841 2.94366 3.66778 3.39034C3.67393 3.67843 3.67727 3.96652 3.68276 4.25461C3.69091 4.68333 3.70121 5.11205 3.7071 5.54076C3.7079 5.6023 3.74696 5.62013 3.78668 5.64318C4.18981 5.87698 4.59307 6.11051 4.99647 6.3439C5.53496 6.65545 6.07358 6.96687 6.61206 7.27829C6.62557 7.28606 6.63922 7.29384 6.65273 7.30148C6.68549 7.31998 6.69753 7.30631 6.69686 7.27279C6.6966 7.25939 6.697 7.24598 6.697 7.23257C6.697 6.15783 6.69646 5.08322 6.69833 4.00848C6.69847 3.94427 6.67734 3.90955 6.62196 3.87684C6.21669 3.63781 5.81396 3.39463 5.41017 3.15306C5.21114 3.03401 5.01265 2.91403 4.81243 2.797C4.47925 2.60221 4.39365 2.20044 4.62464 1.90753C4.79945 1.68579 5.12808 1.63043 5.38061 1.78138C5.79216 2.02737 6.20318 2.27417 6.61447 2.52044C6.63721 2.53411 6.66035 2.54685 6.69686 2.56763Z" fill="#959595"/>
</svg>
