<svg width="17" height="16" viewBox="0 0 17 16" fill="none" xmlns="http://www.w3.org/2000/svg">
<path d="M7.74901 15.272C5.52632 15.272 3.30363 15.2722 1.08072 15.2718C0.846957 15.2718 0.615514 15.2515 0.39929 15.1532C0.142907 15.037 0.00108255 14.852 0.00171664 14.5536C0.00615525 12.2286 0.00995979 9.90381 2.57329e-05 7.57882C-0.00229926 7.05718 0.153052 6.59641 0.414085 6.16015C0.632846 5.79471 0.922413 5.48654 1.21832 5.18387C2.37426 4.00193 3.7067 3.06136 5.16679 2.29475C6.06085 1.82553 6.98937 1.4381 7.94685 1.12021C9.01803 0.764485 10.1129 0.503241 11.2266 0.320412C11.9145 0.207756 12.6063 0.126804 13.3011 0.0726949C14.2038 0.00231107 15.1089 -0.0110048 16.0139 0.00759514C16.4255 0.0160496 16.7087 0.371984 16.6615 0.782451C16.6062 1.26457 16.5658 1.74838 16.5182 2.23134C16.4724 2.69697 16.4246 3.1624 16.3794 3.62803C16.3331 4.10423 16.2893 4.58043 16.2433 5.05663C16.1991 5.51529 16.1536 5.97394 16.1084 6.4326C16.0695 6.82806 16.03 7.22352 15.9911 7.61919C15.9438 8.09877 15.8966 8.57835 15.8497 9.05793C15.8049 9.51659 15.7609 9.97525 15.7159 10.4337C15.6696 10.9063 15.6221 11.3787 15.5756 11.8513C15.5373 12.2398 15.502 12.6287 15.4619 13.0172C15.4073 13.5454 15.376 14.0767 15.2925 14.6011C15.2224 15.0414 14.9258 15.2724 14.4807 15.2722C12.2369 15.2718 9.99284 15.272 7.74901 15.272ZM2.38061 7.50928C2.40618 7.54289 2.44296 7.5431 2.47508 7.54986C2.74415 7.60778 3.01343 7.64054 3.29137 7.62003C3.88382 7.57628 4.37418 7.33406 4.76774 6.894C4.82354 6.83165 4.88039 6.81136 4.95987 6.81136C7.1963 6.81263 9.43294 6.81242 11.6694 6.81221C12.7435 6.81221 13.8179 6.81094 14.892 6.81411C14.9956 6.81432 15.0305 6.786 15.036 6.67884C15.0491 6.42964 15.0795 6.1815 15.1019 5.93273C15.1423 5.48781 15.1822 5.0431 15.2217 4.59818C15.2532 4.24436 15.2843 3.89033 15.3145 3.53651C15.3543 3.07405 15.3944 2.61158 15.4316 2.14891C15.4585 1.8158 15.4777 1.48206 15.5069 1.14938C15.5219 0.979441 15.5177 0.967605 15.3469 0.96528C14.7517 0.956825 14.158 0.97775 13.564 1.02214C13.0128 1.06335 12.4641 1.12317 11.9179 1.20454C11.0926 1.32734 10.2756 1.4939 9.46845 1.70737C8.24254 2.0316 7.05595 2.46004 5.92136 3.02776C5.01461 3.48155 4.16091 4.01968 3.37063 4.6561C3.20619 4.78862 3.04746 4.92833 2.88914 5.06804C2.79382 5.15216 2.79678 5.15449 2.90056 5.2179C2.94558 5.24537 2.99081 5.27285 3.03308 5.30456C3.50442 5.65732 3.731 6.13754 3.77201 6.71646C3.7794 6.82129 3.7291 6.88851 3.65872 6.95234C3.411 7.17744 3.12185 7.32497 2.80101 7.41184C2.66362 7.44883 2.52306 7.47652 2.38061 7.50928ZM7.73252 14.1653C7.73252 14.1655 7.73252 14.1655 7.73252 14.1657C9.89476 14.1657 12.057 14.1657 14.2192 14.1653C14.2647 14.1653 14.3116 14.1657 14.3556 14.1556C14.4528 14.1334 14.5276 14.0478 14.5211 13.9757C14.513 13.8884 14.4384 13.8349 14.3192 13.8326C14.2452 13.8311 14.1713 13.8318 14.0973 13.8318C12.8788 13.8318 11.6605 13.8322 10.442 13.8322C7.38525 13.8322 4.32853 13.832 1.27201 13.832C1.22635 13.832 1.18006 13.8305 1.13483 13.8356C1.04669 13.8453 0.992586 13.8952 0.984342 13.9848C0.976099 14.0763 1.02683 14.1325 1.10989 14.1556C1.1528 14.1676 1.20057 14.1651 1.24601 14.1651C3.40804 14.1655 5.57028 14.1653 7.73252 14.1653ZM13.1007 8.19198C13.1007 8.19177 13.1007 8.19177 13.1007 8.19156C12.7771 8.19156 12.4533 8.1905 12.1297 8.19177C11.8864 8.19283 11.7099 8.35537 11.704 8.58089C11.6983 8.79606 11.8716 8.97994 12.1098 8.98227C12.7642 8.98861 13.4186 8.9884 14.0728 8.98206C14.319 8.97973 14.4864 8.80007 14.4801 8.57455C14.4739 8.35156 14.296 8.1924 14.0504 8.19198C13.734 8.19156 13.4173 8.19198 13.1007 8.19198Z" fill="#959595"/>
</svg>
