<svg width="173" height="49" viewBox="0 0 173 49" fill="none" xmlns="http://www.w3.org/2000/svg">
<path d="M-25.5735 13.5166C-25.4067 13.5085 -25.2399 13.4936 -25.073 13.4936C-19.4093 13.4923 -13.746 13.4923 -8.08228 13.4927C-7.48276 13.4927 -7.4819 13.4936 -7.48147 14.0824C-7.48062 14.7903 -7.48957 15.4983 -7.47763 16.2062C-7.47293 16.4908 -7.5634 16.6162 -7.86637 16.6452C-8.69717 16.725 -9.52243 16.859 -10.3537 16.9346C-11.4324 17.0327 -11.982 17.5691 -12.0204 18.7199C-12.0579 19.8383 -12.0255 20.9593 -12.034 22.079C-12.0362 22.3559 -11.8843 22.3918 -11.6645 22.3905C-10.9566 22.3862 -10.2487 22.3892 -9.54078 22.3892C-5.94958 22.3892 -2.35839 22.3896 1.2328 22.3888C1.74698 22.3888 1.7487 22.3866 1.74912 21.8784C1.74955 20.836 1.75595 19.7931 1.74528 18.7506C1.73376 17.6015 1.18842 17.0434 0.0384369 16.932C-0.83077 16.8479 -1.69614 16.7233 -2.56449 16.6278C-2.77998 16.6039 -2.85594 16.4869 -2.85637 16.2971C-2.85893 15.4603 -2.85765 14.6239 -2.85679 13.7871C-2.85637 13.5806 -2.75353 13.4808 -2.54358 13.4923C-2.45398 13.4974 -2.36351 13.4914 -2.27347 13.4914C3.36422 13.4914 9.00233 13.4914 14.64 13.4914C15.2297 13.4914 15.2302 13.4923 15.2306 14.0884C15.231 14.7835 15.2225 15.4786 15.2344 16.1737C15.2391 16.4618 15.1764 16.6128 14.8414 16.6465C13.8835 16.7425 12.9268 16.8603 11.9757 17.0088C11.2874 17.1163 10.8824 17.549 10.7663 18.2377C10.713 18.5535 10.6742 18.8718 10.6746 19.1965C10.6797 22.9038 10.6797 26.6106 10.6746 30.3179C10.6742 30.6426 10.7122 30.9614 10.7681 31.2763C10.9093 32.0734 11.4534 32.4873 12.3618 32.5739C13.2182 32.6554 14.0704 32.7817 14.9255 32.8747C15.158 32.8999 15.2323 33.0113 15.231 33.2263C15.2268 34.0503 15.2263 34.8739 15.2306 35.6978C15.2319 35.9287 15.1282 36.0277 14.9029 36.0166C14.8128 36.0123 14.7228 36.0175 14.6328 36.0175C8.99508 36.0175 3.35696 36.0175 -2.28074 36.0175C-2.85978 36.0175 -2.86106 36.0166 -2.86234 35.4448C-2.86362 34.7497 -2.85722 34.0546 -2.86447 33.3595C-2.86789 33.0625 -2.80174 32.8961 -2.44629 32.8628C-1.52631 32.7766 -0.606747 32.6652 0.305559 32.5176C1.15898 32.3793 1.63519 31.8459 1.6578 30.9895C1.68938 29.8063 1.66677 28.6213 1.67402 27.4372C1.6753 27.2029 1.57331 27.1133 1.34801 27.1197C1.0907 27.127 0.833403 27.1201 0.575668 27.1201C-3.44053 27.1201 -7.4563 27.1201 -11.4725 27.1201C-12.0323 27.1201 -12.0328 27.121 -12.0332 27.6616C-12.0336 28.6268 -12.0293 29.5925 -12.0357 30.5577C-12.0375 30.844 -11.9935 31.1235 -11.9282 31.3975C-11.7575 32.1118 -11.2408 32.4843 -10.3933 32.5713C-9.53736 32.6588 -8.68564 32.783 -7.82966 32.87C-7.56126 32.8974 -7.47934 33.0164 -7.48147 33.2652C-7.4883 34.0503 -7.49257 34.8355 -7.47976 35.6206C-7.47464 35.9244 -7.59541 36.026 -7.89154 36.0213C-8.70229 36.0085 -9.51347 36.0175 -10.3242 36.0175C-15.2156 36.0175 -20.107 36.0179 -24.9979 36.0166C-25.1904 36.0166 -25.3832 36.0017 -25.5757 35.9936C-25.5757 34.9635 -25.5757 33.9338 -25.5757 32.9038C-24.5059 32.774 -23.4349 32.655 -22.3672 32.5103C-21.6393 32.4113 -21.2429 31.9573 -21.1038 31.2468C-21.0538 30.9917 -21.0406 30.7382 -21.0406 30.4809C-21.0406 27.7171 -21.0402 24.9533 -21.0406 22.1899C-21.0406 21.0331 -21.0291 19.8759 -21.047 18.7195C-21.0637 17.645 -21.5731 17.0724 -22.593 16.9482C-23.5864 16.8275 -24.5814 16.7195 -25.5757 16.606C-25.5736 15.5763 -25.5735 14.5463 -25.5735 13.5166Z" fill="#5F5F5F"/>
<path d="M31.8167 36.6887C31.128 36.6191 30.438 36.5607 29.7506 36.4779C26.7649 36.1177 23.8714 35.4427 21.2688 33.8545C18.3216 32.0559 16.5221 29.4679 16.1453 26.009C15.7724 22.5863 16.6809 19.5537 19.2083 17.1168C20.7483 15.6314 22.6138 14.6879 24.6318 14.0334C26.6091 13.3916 28.6433 13.0532 30.7119 12.8599C32.5498 12.6884 34.3893 12.6734 36.2255 12.7379C39.5572 12.8548 42.8369 13.3071 45.9237 14.667C48.4187 15.7658 50.4801 17.3732 51.7231 19.8665C52.6273 21.6804 52.9572 23.6083 52.7908 25.6318C52.4144 30.2023 49.8093 33.0723 45.7731 34.8368C43.6349 35.7717 41.3724 36.2432 39.0588 36.4856C38.3957 36.5551 37.7322 36.6213 37.0691 36.6891C35.3183 36.6887 33.5675 36.6887 31.8167 36.6887ZM42.3756 24.6986C42.4042 24.0226 42.3321 23.2815 42.2177 22.5441C41.8158 19.945 40.4554 18.1545 37.8384 17.4987C35.6605 16.9529 33.4599 16.9516 31.2709 17.4556C28.7653 18.0325 27.2718 19.619 26.7653 22.1238C26.4022 23.9202 26.4111 25.7244 26.793 27.5204C27.2995 29.9006 28.7192 31.4325 31.0891 32.0149C33.3481 32.5701 35.6268 32.5714 37.8815 31.9974C40.1452 31.4214 41.5414 29.9586 42.0722 27.6761C42.295 26.7195 42.3931 25.7512 42.3756 24.6986Z" fill="#5F5F5F"/>
<path d="M172.164 35.9163C172.01 35.9245 171.856 35.9402 171.703 35.9402C165.614 35.9415 159.526 35.9415 153.437 35.9411C152.831 35.9411 152.83 35.9402 152.83 35.3236C152.83 34.6157 152.838 33.9078 152.827 33.1999C152.823 32.9243 152.924 32.8214 153.203 32.7937C154.034 32.7118 154.862 32.5982 155.69 32.4971C155.91 32.4702 156.119 32.4079 156.315 32.3094C156.878 32.0269 157.054 31.5695 156.785 30.9977C156.494 30.3776 156.059 29.8455 155.686 29.2746C155.556 29.0749 155.341 29.1346 155.155 29.1342C152.015 29.1312 148.874 29.1321 145.733 29.1321C144.562 29.1321 143.39 29.1389 142.219 29.1274C141.945 29.1248 141.763 29.2038 141.622 29.4487C141.32 29.9723 140.986 30.4775 140.678 30.9981C140.312 31.6164 140.489 32.1459 141.148 32.4502C141.691 32.7011 142.286 32.62 142.853 32.7186C143.118 32.7647 143.389 32.7711 143.658 32.7967C144.225 32.8509 144.225 32.8513 144.226 33.4333C144.226 34.0896 144.227 34.7463 144.225 35.4026C144.225 35.9385 144.223 35.9407 143.694 35.9407C140.245 35.9415 136.795 35.9411 133.345 35.9411C132.315 35.9411 131.285 35.9304 130.256 35.9471C129.92 35.9526 129.8 35.843 129.809 35.5037C129.828 34.7446 129.823 33.9851 129.811 33.2255C129.806 32.9383 129.9 32.8201 130.202 32.7915C131.059 32.7105 131.912 32.5948 132.766 32.489C133.503 32.3977 134.002 31.9697 134.38 31.3578C135.716 29.1888 137.058 27.0224 138.398 24.8556C139.596 22.9183 140.796 20.9819 141.992 19.0438C142.154 18.7822 142.325 18.5258 142.335 18.1968C142.356 17.5635 141.944 17.0844 141.312 17.0182C140.098 16.8915 138.886 16.7515 137.671 16.6384C137.385 16.612 137.297 16.4998 137.301 16.2292C137.311 15.4701 137.319 14.7101 137.298 13.951C137.288 13.5986 137.406 13.4838 137.761 13.4855C140.181 13.4979 142.601 13.4919 145.02 13.4919C148.058 13.4919 151.096 13.5141 154.134 13.4799C155.226 13.4676 155.998 13.8964 156.582 14.7916C159.162 18.7477 161.754 22.6964 164.341 26.6478C165.356 28.1984 166.374 29.7465 167.382 31.3023C167.914 32.1242 168.664 32.518 169.634 32.5782C170.479 32.6307 171.321 32.7412 172.165 32.8261C172.164 33.8566 172.164 34.8867 172.164 35.9163ZM148.577 25.0771C149.876 25.0771 151.175 25.0779 152.475 25.0749C152.571 25.0745 152.702 25.1244 152.757 25.016C152.811 24.9115 152.703 24.8283 152.65 24.7464C151.309 22.7028 149.965 20.6623 148.628 18.6162C148.474 18.3798 148.395 18.3299 148.224 18.612C146.98 20.6559 145.722 22.6909 144.471 24.7293C144.274 25.0502 144.288 25.0758 144.679 25.0762C145.978 25.0783 147.277 25.0771 148.577 25.0771Z" fill="#5F5F5F"/>
<path d="M83.3111 29.9932C83.3111 26.9494 83.3184 24.0149 83.3069 21.0809C83.3035 20.1946 83.3837 19.3049 83.2497 18.4216C83.1029 17.4517 82.6425 17.037 81.673 16.938C80.817 16.8505 79.9649 16.7259 79.1085 16.6393C78.8405 16.612 78.7496 16.4997 78.7654 16.2463C78.8179 15.3997 78.8657 14.5527 78.9096 13.7052C78.9194 13.5175 78.995 13.4168 79.1896 13.4197C79.2924 13.421 79.3957 13.4168 79.4985 13.4168C83.9137 13.4168 88.3288 13.4163 92.744 13.4168C93.3205 13.4168 93.3213 13.418 93.3218 13.9894C93.3226 14.7101 93.3145 15.4313 93.3252 16.152C93.329 16.4199 93.2428 16.5386 92.9578 16.5676C92.1786 16.6465 91.4046 16.7775 90.625 16.8526C89.2983 16.9802 88.8072 17.4893 88.7709 18.8279C88.7671 18.9695 88.7696 19.1112 88.7696 19.2524C88.7696 24.62 88.7696 29.9876 88.7696 35.3552C88.7696 35.9398 88.7688 35.9411 88.1735 35.9411C84.6723 35.9411 81.1712 35.9283 77.67 35.9479C76.6459 35.9539 75.8958 35.5788 75.2715 34.751C71.5284 29.7879 67.7559 24.8475 63.9927 19.8998C63.9099 19.7909 63.8203 19.6877 63.7243 19.5703C63.6343 19.7129 63.6731 19.8439 63.6731 19.9663C63.6705 23.3386 63.6688 26.7113 63.6744 30.0836C63.6748 30.4557 63.7021 30.8299 63.7482 31.1995C63.8506 32.0145 64.4075 32.4783 65.3164 32.5713C66.1723 32.6588 67.024 32.7838 67.88 32.87C68.1518 32.8973 68.2252 33.0198 68.2227 33.2669C68.215 34.0392 68.206 34.812 68.2265 35.5835C68.2355 35.9278 68.107 36.0243 67.7763 36.0226C65.5754 36.0119 63.374 36.017 61.173 36.017C58.856 36.017 56.5389 36.0106 54.2223 36.0234C53.8618 36.0256 53.7154 35.9261 53.7278 35.5459C53.7517 34.8 53.7423 34.0529 53.7312 33.3066C53.7269 33.0258 53.8089 32.8944 54.1161 32.8653C54.9469 32.7868 55.773 32.6563 56.6034 32.5748C57.7418 32.463 58.2739 31.8762 58.282 30.6371C58.2931 28.9123 58.2855 27.1875 58.2855 25.4624C58.2855 23.3514 58.2855 21.2405 58.2855 19.1291C58.2855 19.0003 58.2893 18.8714 58.2816 18.7429C58.2125 17.5456 57.6975 17.0361 56.5146 16.929C55.6834 16.8539 54.8573 16.7259 54.0273 16.6312C53.817 16.6073 53.7354 16.5057 53.7359 16.3056C53.738 15.4688 53.738 14.6325 53.7367 13.7957C53.7363 13.5879 53.8315 13.4867 54.0418 13.4931C54.1447 13.4965 54.2479 13.4919 54.3508 13.4919C59.2421 13.4919 64.1335 13.4919 69.0249 13.4919C69.231 13.4919 69.4371 13.4893 69.6428 13.497C70.4309 13.5251 71.0577 13.8144 71.554 14.4733C75.3551 19.5213 79.1759 24.5547 82.9907 29.5925C83.0739 29.7034 83.1635 29.8092 83.3111 29.9932Z" fill="#5F5F5F"/>
<path d="M107.47 35.9411C102.792 35.9411 98.9307 35.9415 95.0685 35.9406C94.5159 35.9406 94.5151 35.9389 94.5142 35.3863C94.5134 34.6656 94.5228 33.9445 94.51 33.2238C94.5048 32.9353 94.6013 32.8227 94.9021 32.7911C95.8601 32.6908 96.8176 32.5769 97.7683 32.425C98.4643 32.314 98.8684 31.8809 98.9785 31.1961C99.0335 30.8547 99.063 30.5052 99.0638 30.1592C99.0698 26.4515 99.0659 22.7442 99.0706 19.0365C99.0711 18.7122 99.0374 18.3926 98.9823 18.0773C98.8872 17.5341 98.5611 17.1795 98.0303 17.0199C97.3224 16.807 96.5829 16.8125 95.8588 16.7118C94.5829 16.5347 94.8509 16.7993 94.8227 15.5968C94.8091 15.0178 94.8283 14.4383 94.8176 13.8588C94.8129 13.5994 94.9017 13.468 95.1735 13.4923C95.2375 13.4983 95.3019 13.4923 95.3664 13.4923C102.781 13.4927 110.197 13.4773 117.612 13.503C120.267 13.5123 122.867 13.9198 125.329 14.9755C127.913 16.0837 129.922 17.8046 130.968 20.4873C131.643 22.2202 131.821 24.0205 131.653 25.8699C131.506 27.4858 131.072 29.0019 130.221 30.3874C129.172 32.0964 127.679 33.3117 125.895 34.1779C123.735 35.2259 121.431 35.7367 119.047 35.8574C114.918 36.0661 110.785 35.8728 107.47 35.9411ZM107.844 24.7532C107.844 26.8504 107.844 28.9477 107.844 31.0454C107.844 31.5882 107.845 31.5903 108.367 31.5903C110.658 31.5912 112.948 31.5946 115.239 31.5873C115.778 31.5856 116.316 31.5788 116.855 31.505C119.103 31.1986 120.424 30.0538 120.939 27.8455C121.388 25.9181 121.358 23.968 121.031 22.0243C120.848 20.9375 120.447 19.9437 119.616 19.1735C118.677 18.3026 117.511 17.9766 116.284 17.9531C113.634 17.9032 110.983 17.9331 108.332 17.9104C107.933 17.907 107.834 18.0402 107.837 18.4221C107.853 20.5326 107.844 22.6431 107.844 24.7532Z" fill="#5F5F5F"/>
</svg>
