<svg width="225" height="18" viewBox="0 0 225 18" fill="none" xmlns="http://www.w3.org/2000/svg">
<path d="M213.78 11.2436L215.088 11.1381C215.624 11.0959 216.159 11.0326 216.652 10.9693C217.938 10.7795 219.031 10.442 219.932 9.97787C220.275 9.80911 220.446 9.68254 220.832 9.4083C221.968 8.6067 222.547 7.53086 222.632 6.05422C222.654 5.75889 222.632 5.52685 222.611 5.27371C222.547 4.34554 222.332 3.56503 221.946 2.95328C221.496 2.21496 220.853 1.6454 219.996 1.2235C219.139 0.801604 218.046 0.485182 216.781 0.295328C216.781 0.295328 214.916 0 212.151 0H191.018V17.5298H197.662V11.3701H206.686L216.845 17.5509H224.133L213.78 11.2436ZM210.758 2.0462C210.801 2.0462 210.822 2.0462 210.865 2.0462C211.615 2.0673 212.258 2.08839 212.816 2.15168C213.523 2.23605 214.123 2.38372 214.595 2.63686C215.088 2.88999 215.473 3.2697 215.666 3.73379C215.859 4.13459 215.945 4.64087 215.966 5.25262C215.966 5.29481 215.988 6.1386 215.945 6.5605C215.924 6.9824 215.816 7.44648 215.666 7.76291C215.516 8.10042 215.302 8.37466 215.002 8.6067C214.916 8.66998 214.83 8.73327 214.745 8.77546C214.316 9.0075 213.78 9.15517 213.094 9.23954C212.473 9.30283 211.68 9.34502 210.737 9.34502H197.619V2.0462H210.758Z" fill="#5F5F5F"/>
<path d="M21.8196 0.0210571V8.26914C21.8196 10.7372 20.8979 12.5725 19.076 13.7116C17.5114 14.7031 15.2394 15.2093 12.3458 15.2093H0V17.5509H10.2453C13.096 17.5509 15.7109 17.4454 18.0044 17.2345C20.2549 17.0235 22.1625 16.6016 23.7057 15.9688C25.2061 15.357 26.385 14.471 27.1994 13.3319C27.9282 12.2983 28.3354 10.9482 28.4212 9.2817C28.4212 9.13403 28.4426 8.94418 28.4426 8.73323V0.0210571H21.8196Z" fill="#5F5F5F"/>
<path d="M97.8887 9.51386V15.2095H87.7506C82.435 15.2095 79.3485 13.5219 78.5126 10.2311C78.1697 8.85992 78.384 7.55204 78.5126 7.06686C79.3271 3.73387 82.3707 2.10957 87.7506 2.10957H103.612V0.0211792H89.8296C86.9361 0.0211792 84.3212 0.126653 82.0278 0.316507C79.7986 0.506361 77.8696 0.928258 76.3264 1.54001C74.8046 2.15176 73.6471 3.01665 72.8541 4.15577C72.0825 5.23161 71.6967 6.68715 71.6538 8.48022C71.6538 8.5224 71.6538 8.56459 71.6538 8.62788C71.6538 8.71226 71.6538 8.79664 71.6538 8.90211C71.6752 10.7585 72.0825 12.2562 72.8755 13.3531C73.69 14.4922 74.8689 15.3782 76.3692 15.99C77.9125 16.6228 79.8415 17.0447 82.0706 17.2557C84.364 17.4666 86.9575 17.5721 89.8296 17.5721H104.512V9.51386H97.8887Z" fill="#5F5F5F"/>
<path d="M53.6054 0.0211792H46.768L31.4429 17.551H35.4081L38.859 13.6063H58.1279L61.5787 17.551H68.952L53.6054 0.0211792ZM48.4827 2.59475L56.4775 11.7288H40.5094L48.4827 2.59475Z" fill="#5F5F5F"/>
<path d="M162.917 0.0211792L147.592 17.551H151.558L155.008 13.5852H174.256L177.707 17.551H185.101L169.776 0.0211792H162.917ZM172.648 11.7288H156.659L164.654 2.59475L172.648 11.7288Z" fill="#5F5F5F"/>
<path d="M137.969 0.0211792V8.90211C137.969 9.66152 137.862 10.3577 137.712 10.9905C136.854 14.218 133.789 15.8634 128.517 15.8845H127.852C122.558 15.8845 119.472 14.1969 118.636 10.9272C118.486 10.3155 118.4 9.64043 118.4 8.92321V0.0211792H111.755V9.17634C111.755 11.0749 112.163 12.6359 112.977 13.775C113.491 14.4712 114.135 15.104 114.906 15.6103C115.378 15.9056 115.892 16.1798 116.471 16.4119C117.05 16.6439 117.671 16.8549 118.357 17.0236C119.493 17.319 120.779 17.5299 122.194 17.6776C123.973 17.8463 125.987 17.9518 128.174 17.9518C130.381 17.9518 132.375 17.8463 134.154 17.6776C135.547 17.551 136.833 17.34 137.969 17.0447C138.655 16.876 139.276 16.665 139.855 16.433C140.434 16.2009 140.948 15.9478 141.42 15.6314C142.213 15.1251 142.856 14.5133 143.349 13.7961C144.163 12.657 144.57 11.096 144.57 9.19744V0.0211792H137.969Z" fill="#5F5F5F"/>
</svg>
