<svg width="24" height="26" viewBox="0 0 24 26" fill="none" xmlns="http://www.w3.org/2000/svg">
<path fill-rule="evenodd" clip-rule="evenodd" d="M12.8619 21.8952C11.6945 21.8952 10.5781 21.6745 9.55404 21.2709L5.87842 23.6623C7.88879 24.9654 10.2877 25.7217 12.8619 25.7217C17.6219 25.7217 21.7785 23.1361 24.0019 19.2926L20.6884 17.3784C19.125 20.079 16.2056 21.8952 12.8619 21.8952Z" fill="white"/>
<path fill-rule="evenodd" clip-rule="evenodd" d="M4.27734 3.2832L8.06235 12.8617L4.27734 22.4384L10.2538 18.5496L19.0006 12.8617L10.2538 7.17194L4.27734 3.2832Z" fill="white"/>
<path fill-rule="evenodd" clip-rule="evenodd" d="M12.8618 3.82651C16.2056 3.82651 19.1249 5.64264 20.6883 8.34326L24.0019 6.42906C21.7765 2.58558 17.6219 0 12.8618 0C10.2857 0 7.88872 0.756249 5.87646 2.05941L9.55398 4.45074C10.578 4.04716 11.6926 3.82651 12.8618 3.82651Z" fill="white"/>
<path fill-rule="evenodd" clip-rule="evenodd" d="M2.82885 20.9092L4.58274 16.4849L6.0198 12.8602L4.58274 9.23733L2.82885 4.81299C1.05988 7.01573 0 9.81441 0 12.862C0 15.9078 1.05988 18.7065 2.82885 20.9092Z" fill="white"/>
</svg>
