<svg width="24" height="26" viewBox="0 0 24 26" fill="none" xmlns="http://www.w3.org/2000/svg">
<path fill-rule="evenodd" clip-rule="evenodd" d="M12.8619 21.8954C11.6945 21.8954 10.5781 21.6747 9.55404 21.2711L5.87842 23.6625C7.88879 24.9656 10.2877 25.7219 12.8619 25.7219C17.6219 25.7219 21.7785 23.1363 24.0019 19.2928L20.6884 17.3786C19.125 20.0793 16.2056 21.8954 12.8619 21.8954Z" fill="#1572D3"/>
<path fill-rule="evenodd" clip-rule="evenodd" d="M4.27734 3.28336L8.06235 12.8619L4.27734 22.4385L10.2538 18.5498L19.0006 12.8619L10.2538 7.1721L4.27734 3.28336Z" fill="#1572D3"/>
<path fill-rule="evenodd" clip-rule="evenodd" d="M12.8618 3.82651C16.2056 3.82651 19.1249 5.64264 20.6883 8.34326L24.0019 6.42906C21.7765 2.58558 17.6219 0 12.8618 0C10.2857 0 7.88872 0.756249 5.87646 2.05941L9.55398 4.45074C10.578 4.04716 11.6926 3.82651 12.8618 3.82651Z" fill="#1572D3"/>
<path fill-rule="evenodd" clip-rule="evenodd" d="M2.82885 20.9091L4.58274 16.4847L6.0198 12.86L4.58274 9.23717L2.82885 4.81284C1.05988 7.01558 0 9.81426 0 12.8619C0 15.9076 1.05988 18.7063 2.82885 20.9091Z" fill="#1572D3"/>
</svg>
