<svg width="24" height="24" viewBox="0 0 24 24" fill="none" xmlns="http://www.w3.org/2000/svg">
<path d="M18.4699 16.83L18.8599 19.99C18.9599 20.82 18.0699 21.4 17.3599 20.97L13.8999 18.91C13.6599 18.77 13.5999 18.47 13.7299 18.23C14.2299 17.31 14.4999 16.27 14.4999 15.23C14.4999 11.57 11.3599 8.59 7.49989 8.59C6.70989 8.59 5.93989 8.71 5.21989 8.95C4.84989 9.07 4.48989 8.73 4.57989 8.35C5.48989 4.71 8.98989 2 13.1699 2C18.0499 2 21.9999 5.69 21.9999 10.24C21.9999 12.94 20.6099 15.33 18.4699 16.83Z" fill="#1572D3"/>
<path d="M13 15.23C13 16.42 12.56 17.52 11.82 18.39C10.83 19.59 9.26 20.36 7.5 20.36L4.89 21.91C4.45 22.18 3.89 21.81 3.95 21.3L4.2 19.33C2.86 18.4 2 16.91 2 15.23C2 13.47 2.94 11.92 4.38 11C5.27 10.42 6.34 10.09 7.5 10.09C10.54 10.09 13 12.39 13 15.23Z" fill="#1572D3"/>
</svg>
