<svg width="79" height="67" viewBox="0 0 79 67" fill="none" xmlns="http://www.w3.org/2000/svg">
<path d="M11.1729 23.0477C15.2723 11.1625 26.606 3.13192 39.3866 3.13192C52.1672 3.13192 63.5009 11.1625 67.6003 23.0477V23.128H76.603V22.084L72.9055 21.6825C70.5744 21.4416 70.0921 20.3976 69.4491 19.1127L69.2883 18.7915C63.9028 7.38811 52.1672 0 39.3866 0C26.606 0 14.8704 7.38811 9.40451 18.7915L9.24375 19.1127C8.68108 20.3976 8.11842 21.4416 5.86775 21.6825L2.08984 22.084V23.128H11.0925L11.1729 23.0477Z" fill="#5F5F5F"/>
<path d="M67.6807 42.8832V42.9635C63.5009 54.8488 52.1672 62.8793 39.3866 62.8793C26.606 62.8793 15.2723 54.8488 11.1729 42.9635V42.8832H2.08984V43.9272L5.86775 44.3287C8.1988 44.5697 8.68108 45.6136 9.32413 46.8985L9.48489 47.2197C14.79 58.6231 26.606 66.0112 39.3866 66.0112C52.1672 66.0112 63.9028 58.6231 69.3687 47.2197L69.5295 46.8985C70.1725 45.6136 70.6548 44.65 72.9858 44.3287L76.7637 43.9272V42.8832H67.6807Z" fill="#5F5F5F"/>
<path d="M18.2466 28.8297H16.1567V37.9845H18.2466V28.8297Z" fill="#5F5F5F"/>
<path d="M11.2533 37.9042V28.8297H9.24381V35.6556L2.57219 28.8297H0V37.9042H2.00952V31.0782L8.76152 37.9042H11.2533Z" fill="#5F5F5F"/>
<path d="M56.9899 28.8297L51.3633 37.9845H53.7747L54.7393 36.3784H61.2501L62.2147 37.9845H64.6261L58.9995 28.8297H56.9899ZM60.2856 34.6117H55.7842L58.0349 30.9176L60.2856 34.6117Z" fill="#5F5F5F"/>
<path d="M45.6563 36.0573C45.5759 36.0573 45.3348 36.0573 45.2544 36.0573H36.8144V37.9043H45.3348C45.4151 37.9043 45.8974 37.9043 45.9778 37.9043C47.7462 37.7437 48.4696 36.3785 48.4696 35.0936C48.4696 33.8087 47.6658 32.5238 46.0582 32.3632C45.8171 32.3632 45.5759 32.3632 45.4151 32.3632H39.8689C39.6277 32.3632 39.467 32.3632 39.2258 32.2829C38.8239 32.2026 38.5828 31.8814 38.6631 31.4798C38.6631 31.0783 38.9043 30.7571 39.3062 30.6768C39.467 30.5965 39.7081 30.5965 39.8689 30.5965H47.907V28.7495H39.7885C39.5473 28.7495 39.2258 28.7495 38.9847 28.8298C37.6182 28.9904 36.5732 30.1146 36.5732 31.4798C36.5732 32.6041 37.2967 33.9693 38.9043 34.1299C39.2258 34.1299 39.467 34.2102 39.7885 34.1299H45.174C45.2544 34.1299 45.4955 34.1299 45.5759 34.1299C46.0582 34.2102 46.3797 34.6118 46.3797 35.0133C46.3797 35.5754 46.0582 35.977 45.6563 36.0573Z" fill="#5F5F5F"/>
<path d="M30.8663 36.0572C30.7859 36.0572 30.5447 36.0572 30.4643 36.0572H22.1047V37.9042H30.5447C30.6251 37.9042 31.1074 37.9042 31.1878 37.9042C32.9562 37.7436 33.76 36.3784 33.76 35.1738C33.76 33.9692 32.9562 32.604 31.3485 32.4434C31.1074 32.4434 30.8663 32.4434 30.7055 32.4434H25.1592C24.9181 32.4434 24.7573 32.4434 24.5162 32.3631C24.1143 32.2828 23.8731 31.9616 23.9535 31.56C23.9535 31.1585 24.1946 30.8373 24.5965 30.757C24.7573 30.6767 24.9984 30.6767 25.1592 30.6767H33.1973V28.8297H24.9984C24.7573 28.8297 24.4358 28.8297 24.1946 28.91C22.8282 29.0706 21.7832 30.1948 21.7832 31.56C21.7832 32.6843 22.5066 34.0495 24.1143 34.2101C24.4358 34.2101 24.6769 34.2904 24.9984 34.2101H30.384C30.4643 34.2101 30.7055 34.2101 30.7859 34.2101C31.2682 34.2904 31.5897 34.692 31.5897 35.0935C31.6701 35.5753 31.2682 35.9768 30.8663 36.0572Z" fill="#5F5F5F"/>
<path d="M78.7734 37.9042V28.8297H76.7638V35.6556L70.0922 28.8297H67.52V37.9042H69.5295V31.0782L76.2815 37.9042H78.7734Z" fill="#5F5F5F"/>
<path d="M73.5487 60.4702C74.5132 60.4702 75.317 61.2732 75.317 62.2369C75.317 63.2005 74.5132 64.0036 73.5487 64.0036C72.5841 64.0036 71.7803 63.2005 71.7803 62.2369C71.7803 61.755 71.941 61.3535 72.3429 60.952C72.5841 60.6308 73.0664 60.3898 73.5487 60.4702ZM73.5487 63.6021C73.9506 63.6021 74.2721 63.4415 74.5132 63.2005C74.7544 62.9596 74.9151 62.5581 74.9151 62.2369C74.9151 61.5141 74.2721 60.8717 73.5487 60.952C72.8252 60.952 72.1822 61.5944 72.1822 62.3172C72.1822 62.9596 72.7448 63.6021 73.5487 63.6021ZM72.8252 63.1202V61.3535C73.0664 61.3535 73.2271 61.2732 73.4683 61.2732C73.7898 61.2732 74.2721 61.3535 74.2721 61.755C74.2721 61.996 74.1113 62.1566 73.8702 62.1566C74.0309 62.2369 74.1113 62.3975 74.1917 62.5581C74.1917 62.7187 74.2721 62.8793 74.3525 62.9596H73.9506C73.8702 62.799 73.8702 62.6384 73.7898 62.5581C73.7094 62.3172 73.5487 62.3172 73.2271 62.3172V63.0399L72.8252 63.1202ZM73.2271 62.0763C73.5487 62.0763 73.8702 62.0763 73.8702 61.8353C73.8702 61.6747 73.7898 61.5944 73.4683 61.5944C73.3879 61.5944 73.3075 61.5944 73.2271 61.5944V62.0763Z" fill="#5F5F5F"/>
</svg>
