<svg width="225" height="18" viewBox="0 0 225 18" fill="none" xmlns="http://www.w3.org/2000/svg">
<path d="M3.80046 2.8639L11.5194 16.6713L20.4422 16.6945L28.0195 2.8639H31.82V0.349243H20.395V2.8639H23.6998L18.1761 12.9225L12.5817 2.8639H16.5946V0.349243H0V2.8639H3.80046Z" fill="#5F5F5F"/>
<path d="M102.069 2.86393V0.372559H117.366V2.86393H113.565V14.1566H117.106C120.387 14.1566 122.535 12.0145 122.535 9.1273H125.061V16.6946H102.093V14.1333H105.941V2.84065H102.069V2.86393Z" fill="#5F5F5F"/>
<path d="M64.9854 0C57.3137 0 53.23 3.77199 53.23 8.5219C53.23 13.3184 57.1485 17.1602 65.0327 17.1602C72.9168 17.1602 76.7881 13.3184 76.7881 8.5219C76.7881 3.79528 72.6808 0 64.9854 0ZM64.9146 14.5757C62.1056 14.5292 60.8781 11.479 60.9253 8.42877C60.9725 5.28544 62.5069 2.53794 65.1271 2.58451C67.7473 2.63108 69.14 5.42515 69.0928 8.56847C69.0456 11.5255 67.7945 14.6223 64.9146 14.5757Z" fill="#5F5F5F"/>
<path d="M151.121 2.8639L158.84 16.6713L167.763 16.6945L175.34 2.8639H179.141V0.349243H167.716V2.8639H171.021L165.497 12.9225L159.902 2.8639H163.915V0.349243H147.321V2.8639H151.121Z" fill="#5F5F5F"/>
<path d="M212.307 0C204.635 0 200.551 3.77199 200.551 8.5219C200.551 13.3184 204.47 17.1602 212.354 17.1602C220.238 17.1602 224.109 13.3184 224.109 8.5219C224.109 3.79528 220.002 0 212.307 0ZM212.236 14.5757C209.427 14.5292 208.199 11.479 208.247 8.42877C208.294 5.28544 209.828 2.53794 212.448 2.58451C215.069 2.63108 216.461 5.42515 216.414 8.56847C216.367 11.5255 215.116 14.6223 212.236 14.5757Z" fill="#5F5F5F"/>
</svg>
