<svg width="24" height="24" viewBox="0 0 24 24" fill="none" xmlns="http://www.w3.org/2000/svg">
<path d="M11.9402 2.20995L9.5302 7.81995H7.1202C6.7202 7.81995 6.3302 7.84995 5.9502 7.92995L6.9502 5.52995L6.9902 5.43995L7.0502 5.27995C7.0802 5.20995 7.1002 5.14995 7.1302 5.09995C8.2902 2.40995 9.5902 1.56995 11.9402 2.20995Z" fill="#1572D3"/>
<path d="M18.7301 8.09002L18.7101 8.08002C18.1101 7.91002 17.5001 7.82002 16.8801 7.82002H10.6201L12.8701 2.59002L12.9001 2.52002C13.0401 2.57002 13.1901 2.64002 13.3401 2.69002L15.5501 3.62002C16.7801 4.13002 17.6401 4.66002 18.1701 5.30002C18.2601 5.42002 18.3401 5.53002 18.4201 5.66002C18.5101 5.80002 18.5801 5.94002 18.6201 6.09002C18.6601 6.18002 18.6901 6.26002 18.7101 6.35002C18.8601 6.86002 18.8701 7.44002 18.7301 8.09002Z" fill="#1572D3"/>
<path d="M12.52 17.66H12.77C13.07 17.66 13.32 17.39 13.32 17.06C13.32 16.64 13.2 16.58 12.94 16.48L12.52 16.33V17.66Z" fill="#1572D3"/>
<path d="M18.2902 9.51995C17.8402 9.38995 17.3702 9.31995 16.8802 9.31995H7.12023C6.44023 9.31995 5.80023 9.44995 5.20023 9.70995C3.46023 10.4599 2.24023 12.1899 2.24023 14.1999V16.1499C2.24023 16.3899 2.26023 16.6199 2.29023 16.8599C2.51023 20.0399 4.21023 21.7399 7.39023 21.9499C7.62023 21.9799 7.85023 21.9999 8.10023 21.9999H15.9002C19.6002 21.9999 21.5502 20.2399 21.7402 16.7399C21.7502 16.5499 21.7602 16.3499 21.7602 16.1499V14.1999C21.7602 11.9899 20.2902 10.1299 18.2902 9.51995ZM13.2802 15.4999C13.7402 15.6599 14.3602 15.9999 14.3602 17.0599C14.3602 17.9699 13.6502 18.6999 12.7702 18.6999H12.5202V18.9199C12.5202 19.2099 12.2902 19.4399 12.0002 19.4399C11.7102 19.4399 11.4802 19.2099 11.4802 18.9199V18.6999H11.3902C10.4302 18.6999 9.64023 17.8899 9.64023 16.8899C9.64023 16.5999 9.87023 16.3699 10.1602 16.3699C10.4502 16.3699 10.6802 16.5999 10.6802 16.8899C10.6802 17.3099 11.0002 17.6599 11.3902 17.6599H11.4802V15.9699L10.7202 15.6999C10.2602 15.5399 9.64023 15.1999 9.64023 14.1399C9.64023 13.2299 10.3502 12.4999 11.2302 12.4999H11.4802V12.2799C11.4802 11.9899 11.7102 11.7599 12.0002 11.7599C12.2902 11.7599 12.5202 11.9899 12.5202 12.2799V12.4999H12.6102C13.5702 12.4999 14.3602 13.3099 14.3602 14.3099C14.3602 14.5999 14.1302 14.8299 13.8402 14.8299C13.5502 14.8299 13.3202 14.5999 13.3202 14.3099C13.3202 13.8899 13.0002 13.5399 12.6102 13.5399H12.5202V15.2299L13.2802 15.4999Z" fill="#1572D3"/>
<path d="M10.6802 14.14C10.6802 14.56 10.8002 14.62 11.0602 14.72L11.4802 14.87V13.54H11.2302C10.9202 13.54 10.6802 13.81 10.6802 14.14Z" fill="#1572D3"/>
</svg>
